<svg xmlns="http://www.w3.org/2000/svg" xmlns:xlink="http://www.w3.org/1999/xlink" zoomAndPan="magnify" preserveAspectRatio="xMidYMid meet" version="1.0" viewBox="77.34 77.34 220.5 220.5"><defs><clipPath id="f44b5d4988"><path d="M 77.335938 77.335938 L 297.835938 77.335938 L 297.835938 297.835938 L 77.335938 297.835938 Z M 77.335938 77.335938 " clip-rule="nonzero"/></clipPath></defs><g clip-path="url(#f44b5d4988)"><path fill="#ffffff" d="M 187.449219 77.496094 C 186.878906 77.492188 186.347656 77.628906 185.847656 77.902344 L 147.445312 99.238281 C 147.09375 99.371094 146.773438 99.554688 146.484375 99.796875 C 146.195312 100.039062 145.957031 100.320312 145.769531 100.644531 C 145.582031 100.96875 145.453125 101.316406 145.382812 101.683594 C 145.3125 102.054688 145.308594 102.421875 145.371094 102.792969 L 145.371094 145.429688 C 145.371094 146.015625 145.519531 146.5625 145.816406 147.070312 C 146.113281 147.574219 146.519531 147.972656 147.03125 148.257812 L 185.457031 169.613281 C 185.738281 169.828125 186.046875 169.992188 186.382812 170.105469 C 186.714844 170.21875 187.058594 170.273438 187.414062 170.273438 C 187.765625 170.277344 188.113281 170.21875 188.445312 170.109375 C 188.78125 169.996094 189.089844 169.832031 189.371094 169.621094 L 227.816406 148.257812 C 228.328125 147.972656 228.734375 147.574219 229.03125 147.070312 C 229.328125 146.5625 229.476562 146.015625 229.480469 145.429688 L 229.480469 102.300781 C 229.480469 102.289062 229.480469 102.28125 229.480469 102.269531 C 229.476562 102.21875 229.476562 102.171875 229.472656 102.125 C 229.46875 102.050781 229.460938 101.980469 229.453125 101.910156 C 229.453125 101.902344 229.453125 101.894531 229.453125 101.890625 C 229.449219 101.871094 229.445312 101.855469 229.441406 101.839844 C 229.429688 101.761719 229.417969 101.683594 229.402344 101.605469 C 229.402344 101.59375 229.398438 101.585938 229.398438 101.574219 C 229.378906 101.496094 229.355469 101.421875 229.332031 101.347656 C 229.324219 101.316406 229.316406 101.289062 229.308594 101.261719 C 229.285156 101.1875 229.257812 101.113281 229.226562 101.042969 C 229.222656 101.039062 229.222656 101.039062 229.21875 101.035156 C 229.191406 100.96875 229.160156 100.898438 229.125 100.832031 C 229.113281 100.804688 229.101562 100.773438 229.085938 100.746094 C 229.074219 100.71875 229.058594 100.695312 229.042969 100.667969 C 229.003906 100.601562 228.960938 100.535156 228.914062 100.472656 C 228.914062 100.46875 228.910156 100.464844 228.910156 100.460938 C 228.867188 100.402344 228.824219 100.34375 228.777344 100.289062 C 228.757812 100.265625 228.738281 100.238281 228.71875 100.214844 C 228.703125 100.191406 228.683594 100.171875 228.664062 100.152344 C 228.65625 100.140625 228.644531 100.132812 228.636719 100.125 C 228.578125 100.058594 228.515625 99.992188 228.449219 99.929688 C 228.445312 99.925781 228.441406 99.921875 228.433594 99.917969 C 228.378906 99.863281 228.320312 99.8125 228.257812 99.765625 C 228.253906 99.761719 228.25 99.757812 228.246094 99.753906 C 228.164062 99.6875 228.078125 99.628906 227.992188 99.574219 C 227.933594 99.539062 227.875 99.5 227.816406 99.46875 L 227.796875 99.453125 C 227.746094 99.425781 227.691406 99.398438 227.636719 99.371094 L 189 77.902344 C 188.515625 77.636719 188 77.5 187.449219 77.496094 Z M 187.425781 84.441406 L 219.507812 102.261719 L 187.425781 119.648438 L 155.335938 102.261719 Z M 151.84375 107.738281 L 184.1875 125.257812 L 184.1875 161.492188 L 151.84375 143.527344 Z M 223.003906 107.738281 L 223.003906 143.527344 L 190.664062 161.492188 L 190.664062 125.257812 Z M 234.625 123.132812 L 232.035156 124.429688 L 231.519531 127.285156 L 233.5 129.40625 L 234.625 129.609375 L 237.21875 128.304688 L 237.730469 125.445312 L 235.746094 123.328125 Z M 137.289062 124.757812 L 134.695312 126.058594 L 134.183594 128.917969 L 136.160156 131.035156 L 137.289062 131.234375 L 139.878906 129.9375 L 140.394531 127.078125 L 138.414062 124.960938 Z M 245.945312 129.417969 L 243.355469 130.722656 L 242.839844 133.574219 L 244.820312 135.691406 L 245.945312 135.894531 L 248.539062 134.597656 L 249.050781 131.738281 L 247.070312 129.621094 Z M 125.96875 131.050781 L 123.367188 132.351562 L 122.863281 135.203125 L 124.84375 137.324219 L 125.96875 137.523438 L 128.558594 136.230469 L 129.074219 133.371094 L 127.085938 131.253906 Z M 257.265625 135.710938 L 254.671875 137.007812 L 254.160156 139.867188 L 256.148438 141.984375 L 257.265625 142.1875 L 259.859375 140.882812 L 260.371094 138.03125 L 258.390625 135.914062 Z M 114.640625 137.34375 L 112.046875 138.636719 L 111.535156 141.496094 L 113.523438 143.617188 L 114.640625 143.816406 L 117.242188 142.515625 L 117.746094 139.664062 L 115.765625 137.542969 Z M 268.59375 141.996094 L 265.992188 143.300781 L 265.488281 146.15625 L 267.46875 148.277344 L 268.59375 148.472656 L 271.1875 147.175781 L 271.699219 144.316406 L 269.710938 142.199219 Z M 103.320312 143.628906 L 100.730469 144.929688 L 100.214844 147.789062 L 102.195312 149.90625 L 103.320312 150.105469 L 105.914062 148.808594 L 106.425781 145.949219 L 104.445312 143.832031 Z M 274.765625 151.316406 L 272.171875 152.621094 L 271.660156 155.472656 L 273.640625 157.589844 L 274.765625 157.792969 L 277.359375 156.496094 L 277.871094 153.640625 L 275.882812 151.519531 Z M 100.082031 154.675781 L 97.492188 155.980469 L 96.976562 158.832031 L 98.964844 160.949219 L 100.082031 161.152344 L 102.675781 159.855469 L 103.1875 156.996094 L 101.210938 154.878906 Z M 274.765625 164.269531 L 272.171875 165.574219 L 271.660156 168.425781 L 273.640625 170.542969 L 274.765625 170.746094 L 277.359375 169.449219 L 277.871094 166.589844 L 275.882812 164.472656 Z M 100.082031 167.628906 L 97.492188 168.929688 L 96.976562 171.78125 L 98.964844 173.902344 L 100.082031 174.101562 L 102.675781 172.808594 L 103.1875 169.949219 L 101.210938 167.828125 Z M 274.765625 177.222656 L 272.171875 178.523438 L 271.660156 181.375 L 273.640625 183.496094 L 274.765625 183.695312 L 277.359375 182.402344 L 277.871094 179.542969 L 275.882812 177.421875 Z M 119.515625 179.398438 C 118.949219 179.390625 118.417969 179.527344 117.921875 179.800781 L 79.492188 201.152344 C 79.148438 201.28125 78.835938 201.464844 78.554688 201.703125 C 78.273438 201.941406 78.039062 202.214844 77.855469 202.53125 C 77.667969 202.847656 77.539062 203.1875 77.464844 203.546875 C 77.394531 203.910156 77.386719 204.273438 77.4375 204.636719 L 77.4375 247.324219 C 77.4375 247.910156 77.585938 248.460938 77.886719 248.96875 C 78.183594 249.472656 78.589844 249.871094 79.105469 250.15625 L 117.441406 271.449219 L 117.46875 271.46875 C 117.75 271.695312 118.066406 271.867188 118.40625 271.988281 C 118.75 272.109375 119.101562 272.171875 119.464844 272.175781 C 119.828125 272.179688 120.179688 272.121094 120.523438 272.007812 C 120.867188 271.890625 121.183594 271.722656 121.472656 271.5 L 159.882812 250.15625 C 160.398438 249.871094 160.804688 249.472656 161.101562 248.964844 C 161.398438 248.457031 161.546875 247.910156 161.546875 247.324219 L 161.546875 204.820312 C 161.628906 204.425781 161.636719 204.035156 161.574219 203.640625 C 161.507812 203.246094 161.375 202.875 161.175781 202.527344 C 160.972656 202.183594 160.714844 201.882812 160.402344 201.632812 C 160.09375 201.382812 159.746094 201.199219 159.363281 201.074219 L 121.066406 179.800781 C 120.585938 179.535156 120.066406 179.398438 119.515625 179.398438 Z M 255.375 179.398438 C 254.808594 179.390625 254.277344 179.527344 253.78125 179.800781 L 215.320312 201.164062 C 214.980469 201.296875 214.671875 201.480469 214.394531 201.71875 C 214.117188 201.957031 213.886719 202.234375 213.703125 202.546875 C 213.519531 202.863281 213.394531 203.199219 213.324219 203.558594 C 213.253906 203.914062 213.246094 204.273438 213.296875 204.636719 L 213.296875 247.324219 C 213.296875 247.910156 213.445312 248.460938 213.742188 248.96875 C 214.042969 249.472656 214.449219 249.871094 214.964844 250.15625 L 253.359375 271.488281 C 253.644531 271.710938 253.957031 271.878906 254.300781 271.996094 C 254.644531 272.117188 254.996094 272.175781 255.359375 272.171875 C 255.71875 272.171875 256.070312 272.113281 256.414062 271.996094 C 256.757812 271.875 257.070312 271.703125 257.355469 271.480469 L 295.742188 250.15625 C 296.257812 249.871094 296.664062 249.472656 296.960938 248.96875 C 297.261719 248.460938 297.410156 247.910156 297.410156 247.324219 L 297.410156 204.792969 C 297.488281 204.402344 297.496094 204.011719 297.429688 203.621094 C 297.363281 203.226562 297.226562 202.859375 297.027344 202.515625 C 296.824219 202.175781 296.570312 201.878906 296.257812 201.628906 C 295.945312 201.382812 295.601562 201.195312 295.222656 201.074219 L 256.925781 179.800781 C 256.441406 179.535156 255.925781 179.398438 255.375 179.398438 Z M 100.082031 180.578125 L 97.492188 181.882812 L 96.976562 184.734375 L 98.964844 186.851562 L 100.082031 187.054688 L 102.675781 185.757812 L 103.1875 182.898438 L 101.210938 180.78125 Z M 119.5 186.332031 L 151.578125 204.15625 L 119.492188 221.539062 L 87.410156 204.160156 Z M 255.355469 186.332031 L 287.4375 204.15625 L 255.351562 221.539062 L 223.261719 204.15625 Z M 290.933594 209.625 L 290.933594 245.417969 L 258.59375 263.390625 L 258.59375 227.148438 Z M 83.914062 209.632812 L 116.253906 227.15625 L 116.253906 263.390625 L 83.914062 245.417969 Z M 155.070312 209.632812 L 155.070312 245.417969 L 122.730469 263.390625 L 122.730469 227.15625 Z M 219.769531 209.632812 L 252.117188 227.15625 L 252.117188 263.390625 L 219.769531 245.417969 Z M 141.960938 265.777344 L 139.363281 267.074219 L 138.855469 269.929688 L 140.835938 272.050781 L 141.960938 272.25 L 144.554688 270.949219 L 145.066406 268.097656 L 143.082031 265.976562 Z M 232.253906 265.8125 L 229.664062 267.109375 L 229.148438 269.96875 L 231.136719 272.085938 L 232.253906 272.289062 L 234.855469 270.988281 L 235.359375 268.136719 L 233.378906 266.015625 Z M 153.261719 272.09375 L 150.667969 273.394531 L 150.15625 276.253906 L 152.144531 278.375 L 153.261719 278.570312 L 155.855469 277.273438 L 156.367188 274.414062 L 154.386719 272.296875 Z M 220.984375 272.195312 L 218.394531 273.492188 L 217.878906 276.351562 L 219.867188 278.46875 L 220.984375 278.671875 L 223.578125 277.367188 L 224.089844 274.515625 L 222.113281 272.398438 Z M 164.570312 278.417969 L 161.976562 279.714844 L 161.464844 282.574219 L 163.445312 284.691406 L 164.570312 284.894531 L 167.164062 283.589844 L 167.675781 280.738281 L 165.6875 278.621094 Z M 209.714844 278.574219 L 207.125 279.878906 L 206.609375 282.730469 L 208.589844 284.847656 L 209.714844 285.050781 L 212.308594 283.75 L 212.820312 280.898438 L 210.84375 278.777344 Z M 175.871094 284.734375 L 173.277344 286.039062 L 172.765625 288.898438 L 174.75 291.015625 L 175.871094 291.210938 L 178.464844 289.914062 L 178.976562 287.054688 L 176.996094 284.9375 Z M 198.445312 284.957031 L 195.855469 286.257812 L 195.34375 289.113281 L 197.320312 291.230469 L 198.445312 291.433594 L 201.039062 290.136719 L 201.550781 287.277344 L 199.574219 285.160156 Z M 187.175781 291.058594 L 184.585938 292.363281 L 184.074219 295.214844 L 186.050781 297.332031 L 187.175781 297.535156 L 189.769531 296.230469 L 190.28125 293.378906 L 188.296875 291.261719 Z M 187.175781 291.058594 " fill-opacity="1" fill-rule="nonzero"/></g></svg>